<svg xmlns="http://www.w3.org/2000/svg" xmlns:xlink="http://www.w3.org/1999/xlink" width="800" height="800" viewBox="0 0 800 800">
  <defs>
    <linearGradient id="linear-gradient" x1="0.5" x2="0.5" y2="1" gradientUnits="objectBoundingBox">
      <stop offset="0" stop-color="#17f160"/>
      <stop offset="1" stop-color="#f94fe8"/>
    </linearGradient>
    <clipPath id="clip-自定义大小_1">
      <rect width="800" height="800"/>
    </clipPath>
  </defs>
  <g id="自定义大小_1" data-name="自定义大小 – 1" clip-path="url(#clip-自定义大小_1)">
    <rect width="800" height="800" fill="#fff"/>
    <path id="xbox" d="M394.579,331.063c49.038,57.755,71.02,105.609,59.183,127.061-8.455,16.5-62.565,47.854-101.457,59.405-32.128,9.9-74.4,14.851-109.912,11.551-42.274-3.3-84.548-18.152-120.058-41.254-30.437-19.8-37.2-28.053-37.2-42.9,0-31.353,35.51-87.458,98.075-151.813,35.51-36.3,82.857-79.207,89.621-77.557,10.146,1.65,91.312,79.207,121.749,115.51ZM198.428,146.247c-32.128-28.053-62.566-57.755-94.694-67.656-16.91-4.95-18.6-4.95-32.128,8.251C39.478,119.844,12.423,171,5.659,217.2c-5.073,36.3-6.764,46.2-5.073,64.356,6.764,54.455,18.6,90.758,43.965,128.712q15.219,22.277,10.146,9.9c-5.073-11.551,0-39.6,10.146-67.656C82.6,311.262,125.717,232.054,198.428,146.247ZM537.464,213.9c-18.6-85.807-74.4-137.788-81.165-137.788-8.455,0-27.055,6.6-38.892,14.851-25.364,14.851-43.965,33-69.329,56.1,45.656,56.1,111.6,148.513,133.586,213.694,6.764,21.452,10.146,44.554,8.455,56.1-1.691,8.251-1.691,8.251,1.691,4.95,6.764-8.251,21.982-33,27.055-46.2,8.455-16.5,16.909-42.9,20.291-62.706,3.382-24.752,3.382-75.907-1.691-99.009ZM146.008,39.812c52.42-3.3,120.058,36.3,125.131,37.953l23.673-9.9c69.33-33,103.148-28.052,116.676-26.4C342.16.209,245.775-11.342,157,28.261c-26.21,11.551-26.21,11.551-10.991,11.551Z" transform="translate(129.267 133.031)" fill="url(#linear-gradient)"/>
  </g>
</svg>
